<?xml version="1.0" encoding="UTF-8" standalone="no"?>
<svg width="568px" height="131px" viewBox="0 0 568 131" version="1.1" xmlns="http://www.w3.org/2000/svg" xmlns:xlink="http://www.w3.org/1999/xlink" xmlns:sketch="http://www.bohemiancoding.com/sketch/ns">
    <!-- Generator: Sketch 3.0.2 (7799) - http://www.bohemiancoding.com/sketch -->
    <title>Base</title>
    <description>Created with Sketch.</description>
    <defs></defs>
    <g id="Page-1" stroke="none" stroke-width="1" fill="none" fill-rule="evenodd" sketch:type="MSPage">
        <path d="M549.736,47.348158 L549.736,37.32 L567.448,37.32 L567.448,27.816 L549.975078,27.816 L544.884766,31.6640625 L539.5,27.5 L549.736,47.348158 L549.736,47.348158 Z M446.177352,92.7602666 L446.177352,130.6 L435.656,130.6 L435.656,84.3266215 L446.177352,92.7602666 L446.177352,92.7602666 Z M341.870814,60.1992413 C342.767057,50.8633344 346.448499,42.8642444 352.91521,36.2017887 C356.241089,32.7752375 359.944748,30.1077251 364.026213,28.1992413 L372.870814,35.7167283 C367.324692,37.2671394 362.594056,40.4313358 358.678837,45.2093502 C354.525065,50.3446983 352.206715,55.1408476 351.723718,59.5979421 L353.883567,59.5979421 L341.870814,60.1992413 L341.870814,60.1992413 Z M252.650036,78.1930342 C251.400094,74.4819214 250.73779,70.5291848 250.663117,66.3348088 L261.543637,69.636812 C262.102841,73.9007254 263.474347,77.7883155 265.658169,81.2996143 L252.650036,78.1930342 L252.650036,78.1930342 Z M227.203629,97.3354658 C232.128238,93.3858179 236.293941,88.0524902 239.700764,81.3354658 L228.162441,81.3354658 C226.296058,84.2780885 224.142168,86.7673882 221.700764,88.8033691 L227.203629,97.3354658 L227.203629,97.3354658 Z M208.700764,25.3354658 C214.157071,26.2933138 219.209801,28.1944552 223.859023,31.0389087 C228.724083,34.0154151 232.671313,37.9100241 235.700764,42.7227977 L222.909625,43.3354658 C219.462112,39.8321379 215.209355,37.4198684 210.151326,36.0986417 L208.700764,25.3354658 L208.700764,25.3354658 Z M135.833936,99.111357 L135.833936,89.169395 C132.986947,94.454119 128.669078,98.5857502 122.880199,101.564413 C118.846375,103.57071 114.54873,104.828924 109.987191,105.339074 L106.284811,95.5901001 C114.349256,95.4025005 121.374507,92.5486833 127.360762,87.0285714 C133.557618,81.3142571 136.656,74.3143271 136.656,66.0285714 C136.656,63.8867114 136.476709,61.8269545 136.118125,59.8492972 L135.697415,41.3655034 C135.743103,41.4457533 135.78861,41.5262913 135.833936,41.6071174 L135.833936,26.6177936 L145.656,26.6177936 L145.656,72.7608252 L135.833936,99.111357 Z M-0.344,73.6044665 L-0.344,103.6 L9.656,103.6 L9.656,68.4707916 L-0.344,73.6044665 L-0.344,73.6044665 Z M365.951001,91.8612706 C370.249531,94.1495225 375.065136,95.2936367 380.39788,95.2936367 C385.892482,95.2936367 391.290606,93.7842263 396.592414,90.7653603 C398.494528,89.6610657 400.180991,88.4723609 401.651808,87.1992413 L411.870814,90.310762 C409.5094,93.170542 406.73011,95.7041308 403.532929,97.9115465 C396.495983,102.770034 388.591587,105.199241 379.819504,105.199241 C369.113433,105.199241 360.130618,101.567138 352.870814,94.3028278 L365.951001,91.8612706 L365.951001,91.8612706 Z" id="Base" fill="#CFC7C7" sketch:type="MSShapeGroup"></path>
    </g>
</svg>