<?xml version="1.0" encoding="UTF-8" standalone="no"?>
<svg width="568px" height="131px" viewBox="0 0 568 131" version="1.1" xmlns="http://www.w3.org/2000/svg" xmlns:xlink="http://www.w3.org/1999/xlink" xmlns:sketch="http://www.bohemiancoding.com/sketch/ns">
    <!-- Generator: Sketch 3.0.2 (7799) - http://www.bohemiancoding.com/sketch -->
    <title>Red</title>
    <description>Created with Sketch.</description>
    <defs></defs>
    <g id="Page-1" stroke="none" stroke-width="1" fill="none" fill-rule="evenodd" sketch:type="MSPage">
        <path d="M549.736,54.2543089 L549.736,74.9604095 C546.249535,74.3862839 542.792706,73.7831066 539.368,73.136522 L539.368,47.9516711 C542.08535,49.8777751 545.687804,52.0185942 549.736,54.2543089 L549.736,54.2543089 Z M532.429714,36.32 L523.384,36.32 L523.384,26.816 L533.3337,26.816 C532.554392,29.6204452 532.017165,32.7932461 532.429714,36.32 L532.429714,36.32 Z M516.306278,67.8196446 C516.416759,66.4215103 516.472,64.993629 516.472,63.536 C516.472,52.4959448 512.296042,43.280037 503.944,35.888 C500.149656,32.5297874 496.068046,29.9344066 491.699143,28.1018471 C490.663553,31.3352537 490.03943,34.8873513 489.581183,38.6131785 C492.147308,39.9687499 494.53491,41.7243556 496.744,43.88 C502.478336,49.4756016 505.450328,56.340871 505.660057,64.4760007 C509.16065,65.6960451 512.7105,66.8041953 516.306278,67.8196446 L516.306278,67.8196446 Z M447.354569,91.5958694 C446.886665,90.8171075 446.453808,90.0078179 446.056,89.168 L446.056,91.3019719 C441.425461,90.0931225 438.024329,87.4316246 435.544,84.2928119 L435.544,59.9423452 C438.469177,58.9446936 442.172512,58.1314811 446.158963,57.5293024 C445.51432,60.1424981 445.192,62.9127278 445.192,65.84 C445.192,74.5760437 448.095971,81.7279722 453.904,87.296 C455.438323,88.7669214 457.078157,90.0435511 458.823507,91.1258908 C454.382035,92.1583114 450.589438,92.2189492 447.354569,91.5958694 L447.354569,91.5958694 Z M420.483303,69.008 L420.856,69.008 L420.856,68.7976609 C420.732609,68.8675267 420.608374,68.9376417 420.483303,69.008 L420.483303,69.008 Z M360.664,88.16 C362.245553,89.5779436 363.916168,90.7945066 365.67585,91.8096907 C361.523709,92.9960889 357.420314,94.0197716 353.449457,94.8261282 C353.065504,94.4384264 352.686352,94.0403837 352.312,93.632 C345.809933,86.6097671 342.243789,78.1392837 341.61349,68.2203386 C345.042374,70.0060966 348.596774,70.7392426 351.813114,71.1157123 C351.813114,71.1157123 355.265139,83.5448443 360.664,88.16 Z M401.794649,87.4569366 C404.737046,84.8675406 406.818819,81.9339075 408.04,78.656 L418.696,78.656 C417.144197,82.9109447 415.044268,86.7286514 412.396193,90.1091479 C409.08898,89.4822731 405.501104,88.5601585 401.794649,87.4569366 L401.794649,87.4569366 Z M321.62262,93.8259157 C324.911938,90.4145896 327.797728,86.2699532 330.28,81.392 L318.76,81.392 C317.614929,83.1913976 316.361465,84.820453 314.999605,86.2791671 C316.255091,89.6721754 318.539487,92.137753 321.62262,93.8259157 L321.62262,93.8259157 Z M263.104,94.064 C258.201171,89.3642472 254.779973,84.0508625 252.840378,78.1237832 C256.632723,79.3313831 260.91455,80.4598898 265.802253,81.4283035 C266.988466,83.3533014 268.417048,85.1651984 270.088,86.864 C275.848029,92.7200293 282.999957,95.648 291.544,95.648 C295.668941,95.648 302.334273,93.8298377 305.755859,92.7246094 C300.159708,99.5282029 287.656655,105.570379 270.430817,99.7718286 C267.86148,98.1859228 265.41921,96.2833142 263.104,94.064 Z M319.519689,34.7645336 C322.360887,37.1680043 324.79494,39.9735742 326.821865,43.1812613 C327.250449,45.671184 327.773035,47.937221 328.375883,50 L318.472,50 C317.137409,47.6701209 315.597625,45.6147356 313.852644,43.8338423 C315.930066,40.5247822 317.856392,37.4327527 319.519689,34.7645336 L319.519689,34.7645336 Z M239.449734,82.4338941 C239.63258,82.0903951 239.813335,81.743097 239.992,81.392 L238.171818,81.392 C238.591782,81.7406739 239.017726,82.0879969 239.449734,82.4338941 L239.449734,82.4338941 Z M173.890503,95.0630373 C173.529345,94.7374784 173.171178,94.404466 172.816,94.064 C170.777583,92.1100146 168.99528,90.0499572 167.469088,87.8838233 C169.377386,84.1983481 171.286583,80.4786218 173.192719,76.7480963 C174.631427,80.4764558 176.83385,83.8484139 179.8,86.864 C180.281979,87.3540118 180.773703,87.823522 181.275174,88.2725308 C178.961314,90.3694338 176.504443,92.6296736 173.890526,95.0630166 L173.890503,95.0630373 Z M199.811652,24.8009068 C199.908961,24.8003023 200.006411,24.8 200.104,24.8 C203.228528,24.8 206.240828,25.0589499 209.14091,25.5768523 C209.423494,28.8825207 209.910016,32.554945 210.7397,36.4711269 C207.519208,35.6023763 203.973976,35.168 200.104,35.168 C198.057545,35.168 196.097549,35.3437867 194.224011,35.6953613 C196.392135,31.527286 198.238885,27.9097567 199.811652,24.8009068 L199.811652,24.8009068 Z M104.512526,105.723254 C96.1039257,105.608096 88.7366098,103.39737 82.4104622,99.0910294 C78.3419818,80.9108029 74.2279041,63.0287814 68.9880481,47.9467479 C70.0478889,45.7017265 71.3287267,43.5577695 72.8305632,41.5148731 C76.9364343,42.6892868 80.507169,43.9079713 83.6125295,45.1398818 C78.3294861,50.4950181 75.688,56.6270086 75.688,63.536 C75.688,72.2720437 78.3759731,79.7119693 83.752,85.856 C88.9726945,91.8730716 95.4574834,95.1170494 103.206535,95.5880101 C103.467837,99.0186176 103.885355,102.446339 104.512526,105.723254 L104.512526,105.723254 Z M-0.344,31.7761911 L-0.344,15.6926904 C3.28175492,14.7813308 6.75791796,13.816103 10.024,12.7938267 L10.024,32.3144971 C6.68743876,32.1115734 3.23283616,31.9315184 -0.343983709,31.7761918 L-0.344,31.7761911 Z" id="Red" opacity="0.544193097" fill="#C53131" sketch:type="MSShapeGroup"></path>
    </g>
</svg>