<?xml version="1.0" encoding="UTF-8" standalone="no"?>
<svg width="568px" height="131px" viewBox="0 0 568 131" version="1.1" xmlns="http://www.w3.org/2000/svg" xmlns:xlink="http://www.w3.org/1999/xlink" xmlns:sketch="http://www.bohemiancoding.com/sketch/ns">
    <!-- Generator: Sketch 3.0.2 (7799) - http://www.bohemiancoding.com/sketch -->
    <title>Yellow</title>
    <description>Created with Sketch.</description>
    <defs></defs>
    <g id="Page-1" stroke="none" stroke-width="1" fill="none" fill-rule="evenodd" sketch:type="MSPage">
        <path d="M549.736,48.9523477 L549.736,53.0002618 L539.368,48.5060248 L539.368,37.32 L531.552807,37.32 L531.941376,27.816 L539.368,27.816 L539.368,25.8242153 L549.736,48.9523477 L549.736,48.9523477 Z M492.55409,102.464351 C487.502954,104.708385 481.890039,105.830393 475.715302,105.830393 C469.262127,105.830393 463.520784,104.488028 458.491103,101.803256 C454.669142,99.8058601 451.556434,97.1843704 449.15294,93.9387456 L448.53125,91.5273437 L457.788399,90.8169226 C462.899185,94.2723211 468.948254,96 475.935714,96 C481.892865,96 487.196259,94.5110303 491.845971,91.5330592 L492.55409,102.464351 Z M256.431461,44.9456763 C258.058434,42.0625641 260.071297,39.3535102 262.470054,36.8185053 C269.925627,28.9394624 279.197162,25 290.284936,25 C293.799328,25 297.171119,25.3307557 300.400325,25.9922709 L296.675904,35.8178332 C294.654809,35.5240936 292.524487,35.3772242 290.284936,35.3772242 C281.969105,35.3772242 275.087142,38.3077999 269.638838,44.1690391 C267.858712,46.0840848 266.3694,48.1324658 265.170901,50.3141895 L256.431461,44.9456763 L256.431461,44.9456763 Z M227.443752,97.6846893 C220.481675,103.228246 212.002265,106 202.005445,106 C191.530802,106 182.418902,102.586169 174.669509,95.7584104 L181.306881,88.3191078 C186.818439,93.3804141 193.526735,95.911032 201.431942,95.911032 C209.528218,95.911032 216.26376,93.7616431 221.63865,89.462822 L227.443752,97.6846893 L227.443752,97.6846893 Z M0,74.2623063 L0,32.7337352 C3.490358,32.825027 6.82898028,32.9483599 10.0000085,33.1037873 L10,68.4225429 C6.28210916,71.145094 2.87014129,73.2983541 -2.01794137e-11,74.2623063 L0,74.2623063 Z M81.823325,99.0625412 C79.9415193,97.7436785 78.1531403,96.2367702 76.4581851,94.5418149 C68.8193568,86.9029867 65,77.4146474 65,66.0765125 C65,59.0010076 66.4834404,52.6039705 69.4503485,46.8853337 C73.2777191,61.4804769 78.5181665,84.3557857 81.823325,99.0625412 L81.823325,99.0625412 Z M363.789888,28.8042977 C368.994732,26.268092 374.826397,25 381.284936,25 C393.041801,25 402.695667,29.1316313 410.246824,37.3950178 C414.621265,42.261472 417.661036,47.8613086 419.366161,54.1945954 L410.845638,59.2357569 C409.402152,52.4978268 405.975995,46.81755 400.567073,42.1947674 C394.95485,37.3982318 388.599222,35 381.5,35 C378.878683,35 376.398203,35.2806379 374.058554,35.841916 L363.789888,28.8042977 L363.789888,28.8042977 Z" id="Yellow" fill-opacity="0.5" fill="#C9C214" sketch:type="MSShapeGroup"></path>
    </g>
</svg>