<?xml version="1.0" encoding="UTF-8" standalone="no"?>
<svg width="569px" height="131px" viewBox="0 0 569 131" version="1.1" xmlns="http://www.w3.org/2000/svg" xmlns:xlink="http://www.w3.org/1999/xlink" xmlns:sketch="http://www.bohemiancoding.com/sketch/ns">
    <!-- Generator: Sketch 3.0.2 (7799) - http://www.bohemiancoding.com/sketch -->
    <title>Blue</title>
    <description>Created with Sketch.</description>
    <defs></defs>
    <g id="Page-1" stroke="none" stroke-width="1" fill="none" fill-rule="evenodd" sketch:type="MSPage">
        <path d="M437,41 L437,27 L447,27 L447,39.4587851 C444.209575,39.6267912 440.896088,40.0864494 437,41 L437,41 Z M74.9472047,41.0712761 C75.8378153,39.9806361 76.7949154,38.9204007 77.8185053,37.8905694 C85.6975483,29.9634835 95.4020776,26 106.932384,26 C120.240426,26 130.120464,31.3930883 136.572775,42.1794226 L136.528769,59.0463937 C135.414529,53.3848204 132.843617,48.4013833 128.816,44.096 C123.247972,38.1439702 116.192043,35.168 107.648,35.168 C99.8719611,35.168 92.8160317,37.9039726 86.48,43.376 C85.7655459,44.0064007 85.0901888,44.648299 84.4539285,45.3016954 L74.9472045,41.071276 L74.9472047,41.0712761 Z M176.528117,33.8950884 C183.413533,27.9650037 191.665746,25 201.284936,25 C201.323651,25 201.362349,25.0000401 201.401029,25.0001204 L196.515386,35.7216838 C190.300856,36.6521985 185.008709,39.4679684 180.638838,44.1690391 C179.890532,44.9740613 179.193615,45.802645 178.548087,46.6547907 L176.528117,33.8950884 L176.528117,33.8950884 Z M321.612931,94.8664894 C314.108707,102.288855 304.572918,106 293.005445,106 C287.505955,106 282.382112,105.058959 277.633883,103.176864 C288.438972,103.183808 300.933604,101.341155 305.637145,93.5489642 C309.24563,92.0931827 312.428125,89.9644819 315.184644,87.1628541 L321.612931,94.8664894 L321.612931,94.8664894 Z M397.49922,69.247331 L353.179673,69.247331 C353.179673,70.0589723 353.212708,70.8561507 353.278778,71.6388665 L343.160641,69.2895019 C343.053547,67.9568065 343,66.597554 343,65.2117438 C343,63.3713886 343.098212,61.5785031 343.294636,59.8330859 L353.037425,59.6805279 C353.023915,59.7872115 353.011439,59.8937021 353,60 L411.753958,60 L397.49922,69.247331 L397.49922,69.247331 Z M447,39.7303204 C453.681097,29.9100588 463.243228,25 475.686663,25 C482.280738,25 488.385164,26.2923144 494,28.8769662 L490.863539,38.3688903 C486.441806,36.0711515 481.49898,34.922293 476.035007,34.922293 C468.757621,34.922293 462.53494,36.9481785 457.366838,41 C455.559451,40.2895626 452.247042,39.4538757 447,39.7303204 L447,39.7303204 Z M539.80582,27.1117241 L539.960784,27.1117241 L539.960784,0 L550.313725,0 L550.313725,27.1117241 L552.095407,27.1117241 C546.513168,34.0474284 542.788178,31.8949308 539.80582,27.1117241 L539.80582,27.1117241 Z M0.656,16.1961754 L0.656,-0.4 L11.024,-0.4 L11.024,13.5126326 L0.656,16.1961754 L0.656,16.1961754 Z" id="Blue" opacity="0.544193097" fill="#09049F" sketch:type="MSShapeGroup"></path>
    </g>
</svg>