<?xml version="1.0" encoding="UTF-8" standalone="no"?>
<svg width="568px" height="131px" viewBox="0 0 568 131" version="1.1" xmlns="http://www.w3.org/2000/svg" xmlns:xlink="http://www.w3.org/1999/xlink" xmlns:sketch="http://www.bohemiancoding.com/sketch/ns">
    <!-- Generator: Sketch 3.0.2 (7799) - http://www.bohemiancoding.com/sketch -->
    <title>Green</title>
    <description>Created with Sketch.</description>
    <defs></defs>
    <g id="Page-1" stroke="none" stroke-width="1" fill="none" fill-rule="evenodd" sketch:type="MSPage">
        <path d="M10.024,100.576418 L-0.344,100.576416 L10.024,100.576418 Z M549.736,75.5823112 L549.736,102.183122 C545.942716,102.607838 542.402204,102.818279 539.368,102.759546 L539.368,73.4390717 C542.689607,74.1644409 546.143433,74.8797872 549.735988,75.5822918 L549.736,75.5823112 Z M516.314874,67.7093466 C515.533981,77.8695725 511.842382,86.4623886 505.24,93.488 C501.558006,97.3518205 497.41328,100.300858 492.80579,102.335126 C492.272756,98.5644074 492.802608,94.2428893 493.771126,89.7122618 C494.900686,88.8358859 495.987643,87.8624654 497.032,86.792 C502.792029,80.8879705 505.672,73.7600418 505.672,65.408 C505.672,65.1058342 505.668278,64.8053796 505.660834,64.5066361 C508.997657,65.5747361 512.542904,66.6448805 516.314874,67.7093466 L516.314874,67.7093466 Z M435.544,62.0379114 L435.544,43.227735 C439.276039,41.1172316 442.385878,40.1977673 445.48,40.2134218 L445.48,40.352 C445.509851,40.3059436 445.539762,40.2599895 445.569733,40.2141378 C448.540588,40.2465084 451.502356,41.1388297 454.992013,42.6645117 C454.523678,43.0988045 454.065007,43.5519672 453.616,44.024 C449.953191,47.8746456 447.484853,52.307158 446.210964,57.321598 C442.667706,58.8189169 439.096288,60.4083774 435.543998,62.0379066 L435.544,62.0379114 Z M394.457031,69.0079996 C405.427877,64.034525 413.638937,58.5542198 419.474394,54.9741833 C420.395466,58.7283501 420.856,62.7342845 420.856,66.992 L420.856,68.9797435 C420.836432,68.9891634 394.457031,69.0079996 394.457031,69.0079996 Z M250.952091,66.9042337 C250.941364,66.503711 250.936,66.1009665 250.936,65.696 L251.224,65.264 C251.224,57.9862624 252.795831,51.4139042 255.939522,45.5468473 C259.043878,46.5883372 262.221099,47.9133838 265.467405,49.5636825 C262.787792,54.1859757 261.448,59.4193906 261.448,65.264 C261.448,66.6104346 261.519521,67.9234897 261.662562,69.2031661 C257.86322,68.5138742 254.301356,67.736917 250.952091,66.9042337 L250.952091,66.9042337 Z M299.872588,25.6582704 C305.17907,26.6582888 310.106853,28.5321931 314.656,31.28 C316.342504,32.298694 317.920907,33.4241453 319.391211,34.6563564 C317.522743,37.2734613 315.376829,40.0319864 312.927261,42.932985 C308.698892,39.0079737 303.358154,36.5709715 296.905001,35.6219541 C297.897168,32.4143308 298.889608,29.0802899 299.872588,25.6582704 L299.872588,25.6582704 Z M166.916586,87.0782648 C162.737514,80.8163383 160.648,73.6889517 160.648,65.696 L160.936,65.264 C160.936,54.0319438 164.679963,44.4800394 172.168,36.608 C173.028484,35.7033887 173.913053,34.8507547 174.821707,34.0500977 C175.836991,37.6802417 176.641264,42.1426565 177.420952,46.2365472 C173.246966,51.6270812 171.16,57.9695182 171.16,65.264 C171.16,69.4272113 171.843783,73.2712935 173.211359,76.7962716 C171.227186,79.8700764 169.136624,83.2875199 166.916586,87.0782648 L166.916586,87.0782648 Z M235.993292,42.3497445 C237.550461,44.6783213 238.883362,47.228404 239.992,50 L228.184,50 C226.830397,47.6369303 225.265713,45.5562309 223.489944,43.7578996 C227.441817,42.9225171 231.614663,42.3973068 235.993293,42.3497468 L235.993292,42.3497445 Z M136.168,98.7777025 L136.168,104 L146.104,104 L146.104,72.1395735 C142.345181,81.4765577 139.060062,90.4408158 136.168,98.7777025 L136.168,98.7777025 Z M110.058044,105.463245 C108.472885,105.639749 106.856205,105.728 105.208,105.728 C105.157647,105.728 105.107331,105.727926 105.057052,105.727778 C104.555792,102.294012 104.080056,98.8991519 103.633707,95.6111026 C104.152864,95.6357009 104.677628,95.648 105.208,95.648 C105.70909,95.648 106.206205,95.6376335 106.699346,95.6169004 C107.701314,98.9460216 108.818856,102.273007 110.058052,105.463265 L110.058044,105.463245 Z" id="Green" fill-opacity="0.5" fill="#5DCC8A" sketch:type="MSShapeGroup"></path>
    </g>
</svg>