<?xml version="1.0" encoding="UTF-8" standalone="no"?>
<svg
   xmlns:sketch="http://www.bohemiancoding.com/sketch/ns"
   xmlns:dc="http://purl.org/dc/elements/1.1/"
   xmlns:cc="http://creativecommons.org/ns#"
   xmlns:rdf="http://www.w3.org/1999/02/22-rdf-syntax-ns#"
   xmlns:svg="http://www.w3.org/2000/svg"
   xmlns="http://www.w3.org/2000/svg"
   xmlns:sodipodi="http://sodipodi.sourceforge.net/DTD/sodipodi-0.dtd"
   xmlns:inkscape="http://www.inkscape.org/namespaces/inkscape"
   width="568px"
   height="131px"
   viewBox="0 0 568 131"
   version="1.1"
   id="svg3037"
   inkscape:version="0.48.2 r9819"
   sodipodi:docname="4.svg">
  <metadata
     id="metadata3049">
    <rdf:RDF>
      <cc:Work
         rdf:about="">
        <dc:format>image/svg+xml</dc:format>
        <dc:type
           rdf:resource="http://purl.org/dc/dcmitype/StillImage" />
      </cc:Work>
    </rdf:RDF>
  </metadata>
  <sodipodi:namedview
     pagecolor="#ffffff"
     bordercolor="#666666"
     borderopacity="1"
     objecttolerance="10"
     gridtolerance="10"
     guidetolerance="10"
     inkscape:pageopacity="0"
     inkscape:pageshadow="2"
     inkscape:window-width="1230"
     inkscape:window-height="862"
     id="namedview3047"
     showgrid="false"
     inkscape:zoom="3.5056561"
     inkscape:cx="52.095074"
     inkscape:cy="79.163984"
     inkscape:window-x="0"
     inkscape:window-y="0"
     inkscape:window-maximized="0"
     inkscape:current-layer="svg3037" />
  <!-- Generator: Sketch 3.0.2 (7799) - http://www.bohemiancoding.com/sketch -->
  <title
     id="title3039">Yellow</title>
  <description
     id="description3041">Created with Sketch.</description>
  <defs
     id="defs3043" />
  <g
     id="Page-1"
     stroke="none"
     stroke-width="1"
     fill="none"
     fill-rule="evenodd"
     sketch:type="MSPage">
    <path
       style="fill:#c9c214;fill-opacity:0.5"
       d="m 549.736,48.952348 c 2.61841,7.395584 -13.49375,0.694192 -10.368,-4.891694 4.82583,-11.093323 -10.46826,-2.364134 -7.63359,-11.182314 -1.51191,-6.749056 10.62412,-8.483621 9.90664,-1.983589 2.69831,6.019199 5.39663,12.038398 8.09495,18.057597 z m -57.18191,53.512002 c -13.02588,7.23341 -40.58799,2.93225 -42.91476,-11.022044 13.09184,-2.314944 25.15381,10.598724 38.59679,2.045044 6.16297,-6.568699 3.0948,6.310949 4.31797,8.977 z M 256.43146,44.945676 c 5.38162,-15.025231 36.25164,-27.210538 42.78713,-15.835832 -3.94462,13.845369 -29.80074,1.910712 -34.04769,21.204345 -2.91315,-1.789504 -5.82629,-3.579009 -8.73944,-5.368513 z m -28.98771,52.739013 c -12.762,12.497551 -47.75989,11.009641 -50.55463,-4.414064 8.27676,-9.763811 24.96021,11.420995 38.12875,0.121581 7.79013,-6.703088 7.82561,-1.647721 12.42588,4.292483 z M 0,32.733735 10.090025,32.760275 9.999999,68.422539 -0.22422807,73.481452 z M 81.823325,99.062541 C 63.756624,91.512943 61.064674,54.119899 70.183723,49.714941 c 4.161854,16.380915 7.916159,32.86259 11.639602,49.3476 z M 363.78989,28.804298 c 21.33734,-10.871517 50.32189,1.685877 55.57627,25.390297 -12.48639,12.795543 -10.72107,-12.225185 -23.14765,-15.147549 -10.39812,-7.111293 -23.56722,0.218928 -32.2438,-10.11608 z"
       id="Yellow"
       inkscape:connector-curvature="0"
       sodipodi:nodetypes="cccccccccccccccccccccccccccccc" />
  </g>
</svg>
