<?xml version="1.0" encoding="UTF-8" standalone="no"?>
<svg width="569px" height="133px" viewBox="0 0 569 133" version="1.1" xmlns="http://www.w3.org/2000/svg" xmlns:xlink="http://www.w3.org/1999/xlink" xmlns:sketch="http://www.bohemiancoding.com/sketch/ns">
    <!-- Generator: Sketch 3.0.2 (7799) - http://www.bohemiancoding.com/sketch -->
    <title>Base</title>
    <description>Created with Sketch.</description>
    <defs></defs>
    <g id="Page-1" stroke="none" stroke-width="1" fill="none" fill-rule="evenodd" sketch:type="MSPage">
        <path d="M568.448,38.32 L550.736,38.32 L550.736,106 L540.368,106 L540.368,38.32 L524.384,38.32 L524.384,28.816 L540.368,28.816 L540.368,1.6 L550.736,1.6 L550.736,28.816 L568.448,28.816 L568.448,38.32 L568.448,38.32 Z M517.472,64.536 C517.472,76.53606 513.728037,86.5199602 506.24,94.488 C498.463961,102.648041 488.62406,106.728 476.72,106.728 C470.191967,106.728 464.384025,105.384013 459.296,102.696 C453.727972,99.8159856 449.648013,95.6400274 447.056,90.168 L447.056,131.928 L436.544,131.928 L436.544,27.528 L446.48,27.528 L446.48,41.352 C453.200034,30.9839482 462.943936,25.8 475.712,25.8 C486.848056,25.8 496.591958,29.495963 504.944,36.888 C513.296042,44.280037 517.472,53.4959448 517.472,64.536 L517.472,64.536 Z M506.672,66.408 C506.672,57.8639573 503.69603,50.688029 497.744,44.88 C491.79197,39.071971 484.544043,36.168 476,36.168 C467.359957,36.168 460.232028,39.1199705 454.616,45.024 C448.999972,50.9280295 446.192,58.1999568 446.192,66.84 C446.192,75.5760437 449.095971,82.7279722 454.904,88.296 C460.712029,93.8640278 468.031956,96.648 476.864,96.648 C485.216042,96.648 492.271971,93.6960295 498.032,87.792 C503.792029,81.8879705 506.672,74.7600418 506.672,66.408 L506.672,66.408 Z M421.856,70.008 L352.736,70.008 C352.736,77.6880384 355.71197,84.0719746 361.664,89.16 C367.232028,94.152025 373.903961,96.648 381.68,96.648 C387.152027,96.648 392.527974,95.1120154 397.808,92.04 C403.472028,88.6799832 407.215991,84.5520245 409.04,79.656 L419.696,79.656 C416.719985,87.8160408 411.728035,94.3679753 404.72,99.312 C397.711965,104.256025 389.840044,106.728 381.104,106.728 C369.967944,106.728 360.704037,102.69604 353.312,94.632 C346.111964,86.8559611 342.512,77.3040566 342.512,65.976 C342.512,54.6479434 346.255963,45.1200386 353.744,37.392 C361.232037,29.6639614 370.639943,25.8 381.968,25.8 C393.776059,25.8 403.471962,29.9279587 411.056,38.184 C418.256036,46.1520398 421.856,56.0879405 421.856,67.992 L421.856,70.008 L421.856,70.008 Z M411.776,60.648 C410.431993,53.639965 406.952028,47.7600238 401.336,43.008 C395.719972,38.2559762 389.360036,35.88 382.256,35.88 C372.943953,35.88 365.408029,39.383965 359.648,46.392 C355.519979,51.4800254 353.216002,56.2319779 352.736,60.648 L411.776,60.648 L411.776,60.648 Z M331.28,82.392 C323.023959,98.6160811 310.304086,106.728 293.12,106.728 C281.887944,106.728 272.216041,102.840039 264.104,95.064 C255.991959,87.2879611 251.936,77.8320557 251.936,66.696 L252.224,66.264 C252.224,55.0319438 255.967963,45.4800394 263.456,37.608 C270.944037,29.7359606 280.255944,25.8 291.392,25.8 C300.416045,25.8 308.503964,27.9599784 315.656,32.28 C322.808036,36.6000216 328.015984,42.8399592 331.28,51 L319.472,51 C313.807972,41.1119506 304.448065,36.168 291.392,36.168 C283.039958,36.168 276.128027,39.0959707 270.656,44.952 C265.183973,50.8080293 262.448,57.9119582 262.448,66.264 C262.448,74.8080427 265.327971,82.0079707 271.088,87.864 C276.848029,93.7200293 283.999957,96.648 292.544,96.648 C304.64006,96.648 313.71197,91.8960475 319.76,82.392 L331.28,82.392 L331.28,82.392 Z M240.992,82.392 C232.735959,98.6160811 220.016086,106.728 202.832,106.728 C191.599944,106.728 181.928041,102.840039 173.816,95.064 C165.703959,87.2879611 161.648,77.8320557 161.648,66.696 L161.936,66.264 C161.936,55.0319438 165.679963,45.4800394 173.168,37.608 C180.656037,29.7359606 189.967944,25.8 201.104,25.8 C210.128045,25.8 218.215964,27.9599784 225.368,32.28 C232.520036,36.6000216 237.727984,42.8399592 240.992,51 L229.184,51 C223.519972,41.1119506 214.160065,36.168 201.104,36.168 C192.751958,36.168 185.840027,39.0959707 180.368,44.952 C174.895973,50.8080293 172.16,57.9119582 172.16,66.264 C172.16,74.8080427 175.039971,82.0079707 180.8,87.864 C186.560029,93.7200293 193.711957,96.648 202.256,96.648 C214.35206,96.648 223.42397,91.8960475 229.472,82.392 L240.992,82.392 L240.992,82.392 Z M147.104,105 L137.168,105 L137.168,90.312 C134.287986,95.5920264 129.920029,99.7199851 124.064,102.696 C118.591973,105.384013 112.640032,106.728 106.208,106.728 C94.7839429,106.728 85.2560382,102.912038 77.624,95.28 C69.9919618,87.6479618 66.176,78.1680566 66.176,66.84 C66.176,55.3199424 70.1119606,45.6000396 77.984,37.68 C85.8560394,29.7599604 95.5519424,25.8 107.072,25.8 C120.704068,25.8 130.735968,31.4639434 137.168,42.792 L137.168,27.816 L147.104,27.816 L147.104,105 L147.104,105 Z M137.168,66.84 C137.168,58.2959573 134.384028,51.0480298 128.816,45.096 C123.247972,39.1439702 116.192043,36.168 107.648,36.168 C99.8719611,36.168 92.8160317,38.9039726 86.48,44.376 C79.9519674,50.1360288 76.688,56.8559616 76.688,64.536 C76.688,73.2720437 79.3759731,80.7119693 84.752,86.856 C90.4160283,93.3840326 97.5679568,96.648 106.208,96.648 C114.560042,96.648 121.807969,93.7680288 127.952,88.008 C134.096031,82.2479712 137.168,75.1920418 137.168,66.84 L137.168,66.84 Z M11.024,105 L0.656,105 L0.656,0.6 L11.024,0.6 L11.024,105 L11.024,105 Z" id="Base" fill="#CFC7C7" sketch:type="MSShapeGroup"></path>
    </g>
</svg>